<?xml version="1.0" encoding="UTF-8" standalone="no"?>
<svg width="100%" height="100%" viewBox="0 0 680 580" version="1.1" xmlns="http://www.w3.org/2000/svg" xmlns:xlink="http://www.w3.org/1999/xlink" xml:space="preserve" style="fill-rule:evenodd;clip-rule:evenodd;">

    <!-- white card background -->
    <path d="M640,26C640,17.169 632.831,10 624,10L56,10C47.169,10 40,17.169 40,26L40,554C40,562.831 47.169,570 56,570L624,570C632.831,570 640,562.831 640,554L640,26Z" style="fill:#ffffff; stroke:#e0e4f0; stroke-width:1px;"/>

    <!-- dot grid — darker on white -->
    <g opacity="0.12">
        <circle cx="100" cy="58" r="1.1" style="fill:rgb(92,107,192);"/><circle cx="140" cy="58" r="1.1" style="fill:rgb(92,107,192);"/><circle cx="180" cy="58" r="1.1" style="fill:rgb(92,107,192);"/><circle cx="220" cy="58" r="1.1" style="fill:rgb(92,107,192);"/><circle cx="260" cy="58" r="1.1" style="fill:rgb(92,107,192);"/><circle cx="300" cy="58" r="1.1" style="fill:rgb(92,107,192);"/><circle cx="340" cy="58" r="1.1" style="fill:rgb(92,107,192);"/><circle cx="380" cy="58" r="1.1" style="fill:rgb(92,107,192);"/><circle cx="420" cy="58" r="1.1" style="fill:rgb(92,107,192);"/><circle cx="460" cy="58" r="1.1" style="fill:rgb(92,107,192);"/><circle cx="500" cy="58" r="1.1" style="fill:rgb(92,107,192);"/><circle cx="540" cy="58" r="1.1" style="fill:rgb(92,107,192);"/><circle cx="580" cy="58" r="1.1" style="fill:rgb(92,107,192);"/>
        <circle cx="100" cy="98" r="1.1" style="fill:rgb(92,107,192);"/><circle cx="140" cy="98" r="1.1" style="fill:rgb(92,107,192);"/><circle cx="180" cy="98" r="1.1" style="fill:rgb(92,107,192);"/><circle cx="220" cy="98" r="1.1" style="fill:rgb(92,107,192);"/><circle cx="260" cy="98" r="1.1" style="fill:rgb(92,107,192);"/><circle cx="300" cy="98" r="1.1" style="fill:rgb(92,107,192);"/><circle cx="340" cy="98" r="1.1" style="fill:rgb(92,107,192);"/><circle cx="380" cy="98" r="1.1" style="fill:rgb(92,107,192);"/><circle cx="420" cy="98" r="1.1" style="fill:rgb(92,107,192);"/><circle cx="460" cy="98" r="1.1" style="fill:rgb(92,107,192);"/><circle cx="500" cy="98" r="1.1" style="fill:rgb(92,107,192);"/><circle cx="540" cy="98" r="1.1" style="fill:rgb(92,107,192);"/><circle cx="580" cy="98" r="1.1" style="fill:rgb(92,107,192);"/>
        <circle cx="100" cy="138" r="1.1" style="fill:rgb(92,107,192);"/><circle cx="140" cy="138" r="1.1" style="fill:rgb(92,107,192);"/><circle cx="180" cy="138" r="1.1" style="fill:rgb(92,107,192);"/><circle cx="220" cy="138" r="1.1" style="fill:rgb(92,107,192);"/><circle cx="260" cy="138" r="1.1" style="fill:rgb(92,107,192);"/><circle cx="300" cy="138" r="1.1" style="fill:rgb(92,107,192);"/><circle cx="340" cy="138" r="1.1" style="fill:rgb(92,107,192);"/><circle cx="380" cy="138" r="1.1" style="fill:rgb(92,107,192);"/><circle cx="420" cy="138" r="1.1" style="fill:rgb(92,107,192);"/><circle cx="460" cy="138" r="1.1" style="fill:rgb(92,107,192);"/><circle cx="500" cy="138" r="1.1" style="fill:rgb(92,107,192);"/><circle cx="540" cy="138" r="1.1" style="fill:rgb(92,107,192);"/><circle cx="580" cy="138" r="1.1" style="fill:rgb(92,107,192);"/>
        <circle cx="100" cy="178" r="1.1" style="fill:rgb(92,107,192);"/><circle cx="140" cy="178" r="1.1" style="fill:rgb(92,107,192);"/><circle cx="180" cy="178" r="1.1" style="fill:rgb(92,107,192);"/><circle cx="220" cy="178" r="1.1" style="fill:rgb(92,107,192);"/><circle cx="260" cy="178" r="1.1" style="fill:rgb(92,107,192);"/><circle cx="300" cy="178" r="1.1" style="fill:rgb(92,107,192);"/><circle cx="340" cy="178" r="1.1" style="fill:rgb(92,107,192);"/><circle cx="380" cy="178" r="1.1" style="fill:rgb(92,107,192);"/><circle cx="420" cy="178" r="1.1" style="fill:rgb(92,107,192);"/><circle cx="460" cy="178" r="1.1" style="fill:rgb(92,107,192);"/><circle cx="500" cy="178" r="1.1" style="fill:rgb(92,107,192);"/><circle cx="540" cy="178" r="1.1" style="fill:rgb(92,107,192);"/><circle cx="580" cy="178" r="1.1" style="fill:rgb(92,107,192);"/>
    </g>

    <!-- CRESCENT — same transform as original, mask fill = white -->
    <g transform="matrix(0.714078,0,0,0.714078,93.1939,15.2698)">
        <circle cx="175" cy="175" r="100" style="fill:none;stroke:rgb(63,81,181);stroke-opacity:0.85;stroke-width:3px;"/>
    </g>
    <g transform="matrix(0.714078,0,0,0.714078,93.1939,15.2698)">
        <circle cx="175" cy="175" r="94" style="fill:none;stroke:rgb(2,136,209);stroke-opacity:0.25;stroke-width:0.6px;"/>
    </g>
    <!-- masking circle: white instead of dark -->
    <g transform="matrix(0.714078,0,0,0.714078,93.1939,15.2698)">
        <circle cx="213" cy="158" r="87" style="fill:#ffffff;"/>
    </g>
    <g transform="matrix(0.714078,0,0,0.714078,93.1939,15.2698)">
        <circle cx="213" cy="158" r="87" style="fill:none;stroke:rgb(2,136,209);stroke-opacity:0.4;stroke-width:1.2px;"/>
    </g>
    <!-- star: dark on light bg -->
    <g transform="matrix(0.714078,0,0,0.714078,93.1939,15.2698)">
        <path d="M154,76L157.5,86L168,89L157.5,92L154,102L150.5,92L140,89L150.5,86L154,76Z" style="fill:rgb(26,35,126);fill-opacity:0.85;fill-rule:nonzero;"/>
    </g>

    <!-- WORDMARK — dark navy -->
    <g transform="matrix(1,0,0,1,295,200)">
        <text x="0px" y="0px" style="font-family:'Georgia', serif;font-size:70px;fill:rgb(13,13,46);">NyxX</text>
    </g>

    <!-- rule under wordmark — indigo -->
    <line x1="295" y1="212" x2="568" y2="212" style="stroke:rgb(63,81,181);stroke-opacity:0.3;stroke-width:0.7px;"/>

    <!-- ANDREAS DOUKAS s.p. -->
    <g transform="matrix(1,0,0,1,297,234)">
        <text x="0px" y="0px" style="font-family:'ArialMT', 'Arial', sans-serif;font-size:11.5px;letter-spacing:3.5px;fill:rgb(63,81,181);">ANDREAS DOUKAS s.p.</text>
    </g>

    <!-- tagline -->
    <g transform="matrix(1,0,0,1,340,258)">
        <text x="0px" y="0px" text-anchor="middle" style="font-family:'ArialMT', 'Arial', sans-serif;font-size:10.5px;letter-spacing:3px;fill:rgb(55,71,150);fill-opacity:0.7;">SIMULATION · OPTIMIZATION · PERFORMANCE</text>
    </g>

    <!-- divider -->
    <line x1="70" y1="274" x2="610" y2="274" style="stroke:rgb(92,107,192);stroke-opacity:0.2;stroke-width:0.4px;"/>

    <!-- RF & MICROWAVE / HFSS -->
    <g style="fill:none;stroke-linecap:round;">
        <line x1="108" y1="338" x2="108" y2="310" style="stroke:rgb(63,81,181);stroke-width:1.8px;"/>
        <path d="M 97 343 Q 85 326 97 309" style="stroke:rgb(63,81,181);stroke-width:1.5px;"/>
        <path d="M 119 343 Q 131 326 119 309" style="stroke:rgb(63,81,181);stroke-width:1.5px;"/>
        <path d="M 86 349 Q 69 326 86 303" style="stroke:rgb(63,81,181);stroke-width:1.1px;stroke-opacity:0.6;"/>
        <path d="M 130 349 Q 147 326 130 303" style="stroke:rgb(63,81,181);stroke-width:1.1px;stroke-opacity:0.6;"/>
    </g>
    <text x="108" y="372" text-anchor="middle" style="font-family:'ArialMT','Arial',sans-serif;font-size:10px;fill:rgb(55,71,150);">RF &amp; Microwave</text>
    <text x="108" y="385" text-anchor="middle" style="font-family:'ArialMT','Arial',sans-serif;font-size:9px;letter-spacing:2px;fill:rgb(63,81,181);">HFSS</text>

    <!-- PCB / SIWAVE -->
    <g style="fill:none;stroke-linecap:round;">
        <rect x="200" y="311" width="34" height="34" rx="3" style="stroke:rgb(56,142,60);stroke-width:1.5px;"/>
        <line x1="217" y1="311" x2="217" y2="303" style="stroke:rgb(56,142,60);stroke-width:1.3px;"/>
        <line x1="225" y1="311" x2="225" y2="303" style="stroke:rgb(56,142,60);stroke-width:1.3px;"/>
        <line x1="234" y1="319" x2="242" y2="319" style="stroke:rgb(56,142,60);stroke-width:1.3px;"/>
        <line x1="234" y1="327" x2="242" y2="327" style="stroke:rgb(56,142,60);stroke-width:1.3px;"/>
        <line x1="217" y1="345" x2="217" y2="353" style="stroke:rgb(56,142,60);stroke-width:1.3px;"/>
        <line x1="209" y1="345" x2="209" y2="353" style="stroke:rgb(56,142,60);stroke-width:1.3px;"/>
        <line x1="200" y1="323" x2="192" y2="323" style="stroke:rgb(56,142,60);stroke-width:1.3px;"/>
        <line x1="200" y1="331" x2="192" y2="331" style="stroke:rgb(56,142,60);stroke-width:1.3px;"/>
        <circle cx="217" cy="323" r="2.5" style="fill:rgb(56,142,60);"/>
        <circle cx="225" cy="331" r="2.5" style="fill:rgb(56,142,60);"/>
    </g>
    <text x="217" y="372" text-anchor="middle" style="font-family:'ArialMT','Arial',sans-serif;font-size:10px;fill:rgb(55,71,150);">PCB Integrity</text>
    <text x="217" y="385" text-anchor="middle" style="font-family:'ArialMT','Arial',sans-serif;font-size:9px;letter-spacing:2px;fill:rgb(56,142,60);">SIWAVE</text>

    <!-- THERMAL / ICEPAK -->
    <g style="stroke-linecap:round;">
        <rect x="323" y="318" width="34" height="26" rx="2" style="fill:none;stroke:rgb(230,81,0);stroke-width:1.5px;"/>
        <rect x="329" y="324" width="22" height="14" rx="1" style="fill:none;stroke:rgb(245,124,0);stroke-width:0.9px;"/>
        <path d="M331,310C332.333,306 333.667,306 335,310" style="fill:none;stroke:rgb(230,81,0);stroke-width:1.3px;"/>
        <path d="M338,310C339.333,306 340.667,306 342,310" style="fill:none;stroke:rgb(230,81,0);stroke-width:1.3px;"/>
        <path d="M345,310C346.333,306 347.667,306 349,310" style="fill:none;stroke:rgb(230,81,0);stroke-width:1.3px;"/>
        <line x1="323" y1="326" x2="315" y2="326" style="stroke:rgb(230,81,0);stroke-width:1.1px;"/>
        <line x1="323" y1="333" x2="315" y2="333" style="stroke:rgb(230,81,0);stroke-width:1.1px;"/>
        <line x1="357" y1="326" x2="365" y2="326" style="stroke:rgb(230,81,0);stroke-width:1.1px;"/>
        <line x1="357" y1="333" x2="365" y2="333" style="stroke:rgb(230,81,0);stroke-width:1.1px;"/>
    </g>
    <text x="340" y="372" text-anchor="middle" style="font-family:'ArialMT','Arial',sans-serif;font-size:10px;fill:rgb(55,71,150);">Thermal Management</text>
    <text x="340" y="385" text-anchor="middle" style="font-family:'ArialMT','Arial',sans-serif;font-size:9px;letter-spacing:2px;fill:rgb(230,81,0);">ICEPAK</text>

    <!-- EM MACHINES / MAXWELL -->
    <g style="fill:none;stroke-linecap:round;">
        <circle cx="463" cy="328" r="23" style="stroke:rgb(123,31,162);stroke-width:1.6px;"/>
        <circle cx="463" cy="328" r="11" style="stroke:rgb(171,71,188);stroke-width:1px;"/>
        <circle cx="463" cy="328" r="3" style="fill:rgb(123,31,162);"/>
        <line x1="463" y1="305" x2="463" y2="315" style="stroke:rgb(123,31,162);stroke-width:1.8px;"/>
        <line x1="463" y1="341" x2="463" y2="351" style="stroke:rgb(123,31,162);stroke-width:1.8px;"/>
        <line x1="440" y1="328" x2="450" y2="328" style="stroke:rgb(123,31,162);stroke-width:1.8px;"/>
        <line x1="476" y1="328" x2="486" y2="328" style="stroke:rgb(123,31,162);stroke-width:1.8px;"/>
        <line x1="447" y1="311" x2="454" y2="318" style="stroke:rgb(123,31,162);stroke-width:1.3px;"/>
        <line x1="472" y1="338" x2="479" y2="345" style="stroke:rgb(123,31,162);stroke-width:1.3px;"/>
        <line x1="479" y1="311" x2="472" y2="318" style="stroke:rgb(123,31,162);stroke-width:1.3px;"/>
        <line x1="454" y1="338" x2="447" y2="345" style="stroke:rgb(123,31,162);stroke-width:1.3px;"/>
    </g>
    <text x="463" y="372" text-anchor="middle" style="font-family:'ArialMT','Arial',sans-serif;font-size:10px;fill:rgb(55,71,150);">EM Machines</text>
    <text x="463" y="385" text-anchor="middle" style="font-family:'ArialMT','Arial',sans-serif;font-size:9px;letter-spacing:2px;fill:rgb(123,31,162);">MAXWELL</text>

    <!-- EMC / EMI -->
    <g style="fill:none;stroke-linecap:round;">
        <path d="M572,304L595,311L595,330C595,342 587.333,350.667 572,356C556.667,350.667 549,342 549,330L549,311L572,304Z" style="stroke:rgb(2,136,209);stroke-width:1.6px;"/>
        <path d="M561,329C565,323.667 568.667,323.667 572,329C575.333,334.333 579,334.333 583,329" style="stroke:rgb(2,136,209);stroke-width:1.4px;"/>
        <path d="M557,329C561.667,319.667 566.667,319.667 572,329C577.333,338.333 582.333,338.333 587,329" style="stroke:rgb(2,136,209);stroke-opacity:0.4;stroke-width:0.9px;"/>
        <circle cx="572" cy="329" r="2.8" style="fill:rgb(2,136,209);"/>
    </g>
    <text x="572" y="372" text-anchor="middle" style="font-family:'ArialMT','Arial',sans-serif;font-size:10px;fill:rgb(55,71,150);">EMC / EMI</text>
    <text x="572" y="385" text-anchor="middle" style="font-family:'ArialMT','Arial',sans-serif;font-size:9px;letter-spacing:2px;fill:rgb(2,136,209);">ANALYSIS</text>

    <!-- bottom divider -->
    <line x1="70" y1="404" x2="610" y2="404" style="stroke:rgb(92,107,192);stroke-opacity:0.2;stroke-width:0.4px;"/>
    <text x="340" y="426" text-anchor="middle" style="font-family:'ArialMT','Arial',sans-serif;font-size:10px;letter-spacing:3px;fill:rgb(92,107,192);fill-opacity:0.8;">ENGINEERING SOLUTIONS THAT DELIVER</text>
    <text x="340" y="450" text-anchor="middle" style="font-family:'ArialMT','Arial',sans-serif;font-size:10px;fill:rgb(130,140,180);">NyxX (Andreas Doukas s.p.)  ·  Slovenia</text>

</svg>
